<svg id="_0677_Video_Call_2" xmlns="http://www.w3.org/2000/svg" viewBox="0 0 500 500" class="show_show__wrapper__graphic__5Waiy">
    <defs>
        <style>
            .cls-1{fill:#fff}.cls-3{fill:#f4a28c}.cls-4{fill:#a5a5a5}.cls-7{fill:#b5503c}.cls-10{fill:#68e1fd}.cls-11{fill:#24285b}.cls-12{fill:#6f35a5}
        </style>
    </defs>
    <g id="rate">
        <path class="cls-4" d="m325.32 275.15 25.84 105.42H232.99v-15.1h28.32l-7.49-86.21 71.5-4.11z"/>
        <rect x="93.2" y="28.92" width="382.01" height="270.5" rx="14.15" ry="14.15" style="fill:#e6e6e6"/>
        <path class="cls-1" d="M117.08 49.6h332.96c4.6 0 8.33 3.73 8.33 8.33v180.86c0 4.47-3.63 8.1-8.1 8.1H117.81c-4.29 0-7.77-3.48-7.77-7.77V56.64c0-3.89 3.15-7.04 7.04-7.04Z"/>
        <rect class="cls-11" x="41.07" y="87.94" width="202.44" height="60.3" rx="15.61" ry="15.61"/>
        <circle class="cls-4" cx="287.63" cy="268.48" r="11.99"/>
        <path class="cls-7" d="m296.89 51.33-4.53 4.33a2.112 2.112 0 0 0 .7 3.5l4.79 1.85-.95-9.67Z"/>
        <path class="cls-12" d="M337.6 95.51s74.46-5.56 88.28 25.65c13.82 31.21-17.12 96.46-15.77 125.73h-148.8S199.99 101.81 337.6 95.51Z"/>
        <path class="cls-7" d="M298.97 41.71s-4.02 14.58-3.34 24.89c.28 4.18 3.95 7.4 8.13 7.06 5.19-.42 12.08-2.49 15.18-10.04l6.84-12.17s4.02-7.77-3.26-15.35c-7.27-7.57-21.55-3.4-23.55 5.6Z"/>
        <path class="cls-7" d="m322.43 47.07 15.17 48.44-29.95 25.65 3.1-64.59 11.68-9.5z"/>
        <path class="cls-11" d="M295.43 29.16s-8.88 7.9-1.82 14.6c7.06 6.7 19.31 2.63 19.31 2.63s2.44 18.98 14.01 15.04l6.82-16.62s.88-11.56-7.97-13.66c0 0-1.68-7.97-6.8-10.25-5.12-2.28-10.22 2.3-10.22 2.3s-4.52-3.49-8.85-4.1c-4.33-.61-9.94 5.9-4.48 10.06Z"/>
        <path d="M375.76 121.16s-19.71 16.21-13.59 46.84c6.13 30.63 5.36 65.85-3.06 71.98-8.42 6.13 40.58 12.63 40.58 12.63l12.88-14.17 12.77-8.23-49.59-109.05Z" style="fill:#000001;opacity:.11"/>
        <circle class="cls-10" cx="154.08" cy="202.07" r="28.14"/>
        <path class="cls-7" d="M381.96 123.34c3.04-12.74 17.08-19.51 28.82-13.7 11.66 5.78 25.82 18.57 31.41 46.84 7.99 40.41 18.38 94.4-2.87 104.17-21.25 9.76-112.43-13.76-112.43-13.76h-27.26s3.25-13.23 16.05-16.68 28.31 3.45 28.31 3.45l62.02-.57s-33.27-71.14-24.05-109.75Z"/>
        <path class="cls-12" d="m389.93 202.07 61.96-10.91s-4.68-88.93-52.27-88.11c0 0-52.19-1.48-9.69 99.02Z"/>
        <path d="m389.93 202.07 61.96-10.91s-4.68-88.93-52.27-88.11c0 0-52.19-1.48-9.69 99.02Z" style="opacity:.33;fill:#fff"/>
        <circle class="cls-12" cx="128.9" cy="69.14" r="7.17"/>
        <circle class="cls-10" cx="150.08" cy="69.14" r="7.17"/>
        <circle class="cls-11" cx="169.97" cy="69.14" r="7.17"/>
        <path class="cls-7" d="m232.99 246.89-23.39-48.84s-9.91-1.4-12.2-11.17c-2.3-9.76 9.33-15.88 9.33-15.88s-6.89-16.89-3.54-18.45c6.67-3.1 24.22 39.75 24.22 39.75l38.91 54.58H233Z"/>
        <path class="cls-1" d="m79.45 106.22 1.99 4.03c.39.8 1.16 1.35 2.04 1.48l4.45.65c2.22.32 3.11 3.06 1.5 4.62l-3.22 3.14c-.64.62-.93 1.52-.78 2.4l.76 4.43c.38 2.21-1.94 3.9-3.93 2.86l-3.98-2.09c-.79-.42-1.73-.42-2.52 0l-3.98 2.09c-1.99 1.05-4.31-.64-3.93-2.86l.76-4.43c.15-.88-.14-1.78-.78-2.4L64.61 117c-1.61-1.57-.72-4.3 1.5-4.62l4.45-.65c.88-.13 1.65-.68 2.04-1.48l1.99-4.03c.99-2.01 3.87-2.01 4.86 0ZM112.08 106.22l1.99 4.03c.39.8 1.16 1.35 2.04 1.48l4.45.65c2.22.32 3.11 3.06 1.5 4.62l-3.22 3.14c-.64.62-.93 1.52-.78 2.4l.76 4.43c.38 2.21-1.94 3.9-3.93 2.86l-3.98-2.09c-.79-.42-1.73-.42-2.52 0l-3.98 2.09c-1.99 1.05-4.31-.64-3.93-2.86l.76-4.43c.15-.88-.14-1.78-.78-2.4L97.24 117c-1.61-1.57-.72-4.3 1.5-4.62l4.45-.65c.88-.13 1.65-.68 2.04-1.48l1.99-4.03c.99-2.01 3.87-2.01 4.86 0ZM145.42 106.22l1.99 4.03c.39.8 1.16 1.35 2.04 1.48l4.45.65c2.22.32 3.11 3.06 1.5 4.62l-3.22 3.14c-.64.62-.93 1.52-.78 2.4l.76 4.43c.38 2.21-1.94 3.9-3.93 2.86l-3.98-2.09c-.79-.42-1.73-.42-2.52 0l-3.98 2.09c-1.99 1.05-4.31-.64-3.93-2.86l.76-4.43c.15-.88-.14-1.78-.78-2.4l-3.22-3.14c-1.61-1.57-.72-4.3 1.5-4.62l4.45-.65c.88-.13 1.65-.68 2.04-1.48l1.99-4.03c.99-2.01 3.87-2.01 4.86 0ZM179.41 106.22l1.99 4.03c.39.8 1.16 1.35 2.04 1.48l4.45.65c2.22.32 3.11 3.06 1.5 4.62l-3.22 3.14c-.64.62-.93 1.52-.78 2.4l.76 4.43c.38 2.21-1.94 3.9-3.93 2.86l-3.98-2.09c-.79-.42-1.73-.42-2.52 0l-3.98 2.09c-1.99 1.05-4.31-.64-3.93-2.86l.76-4.43c.15-.88-.14-1.78-.78-2.4l-3.22-3.14c-1.61-1.57-.72-4.3 1.5-4.62l4.45-.65c.88-.13 1.65-.68 2.04-1.48l1.99-4.03c.99-2.01 3.87-2.01 4.86 0ZM213.19 106.22l1.99 4.03c.39.8 1.16 1.35 2.04 1.48l4.45.65c2.22.32 3.11 3.06 1.5 4.62l-3.22 3.14c-.64.62-.93 1.52-.78 2.4l.76 4.43c.38 2.21-1.94 3.9-3.93 2.86l-3.98-2.09c-.79-.42-1.73-.42-2.52 0l-3.98 2.09c-1.99 1.05-4.31-.64-3.93-2.86l.76-4.43c.15-.88-.14-1.78-.78-2.4l-3.22-3.14c-1.61-1.57-.72-4.3 1.5-4.62l4.45-.65c.88-.13 1.65-.68 2.04-1.48l1.99-4.03c.99-2.01 3.87-2.01 4.86 0ZM152.45 215.15c-.97 0-1.89-.42-2.53-1.16l-9.16-10.72a3.314 3.314 0 0 1 .37-4.68 3.314 3.314 0 0 1 4.68.37l6.39 7.48 9.95-14.05a3.32 3.32 0 0 1 4.63-.79c1.5 1.06 1.85 3.13.79 4.63l-12.42 17.53c-.59.84-1.54 1.35-2.56 1.4h-.15Z"/>
        <rect class="cls-4" x="392.5" y="65.15" width="48.63" height="22.79" rx="11.4" ry="11.4"/>
    </g>
    <g id="person2">
        <path class="cls-3" d="m98.84 398.19 9.29-49.18s-15.81-32.49 6.59-41.72c22.39-9.22 32.49 15.81 33.59 29.42s2.85 28.1-16.03 25.91l-.51 37.76-32.93-2.2Z"/>
        <path class="cls-10" d="M38.69 467.57s-14.49-59.72 41.72-73.33 124.27 16.64 119.44 86.7H65.91l-27.22-13.37Z"/>
        <path class="cls-11" d="M32.81 480.94s-20.91-44.33 4.78-56.18c25.69-11.86 100.12-12.78 115.92 56.18H32.81Z"/>
        <path class="cls-12" d="M98.84 343.08s.33 12.84 17.45 12.84 21.08-30.3 21.08-30.3 11.86-2.63 5.27-17.13c-6.59-14.49-33.26-15.48-39.19-7.25s-20.75 15.15-4.61 41.82Z"/>
        <path class="cls-11" d="M108.5 310.37s-6.68-10.13-16.95-5.07c-10.27 5.07-14.22 20.57-5.44 28.19 8.78 7.61 28.98-1.17 22.39-23.12Z"/>
        <path class="cls-12" d="M98.84 316.08s-2.23-11.65-17.58-12.19c-15.35-.54-20.62 19.04-14.03 32.3s-7.03 24.27 0 33.92c7.03 9.65 35.57-17.58 31.62-54.02Z"/>
    </g>
    <g id="plant">
        <path d="M385.36 357.91s-18.02-4.84-22.01-21.58c0 0 27.87-5.75 28.78 23.03l-6.77-1.45Z" style="fill:#68e1fd;opacity:.58"/>
        <path d="M387.56 356.11s-12.66-19.83-1.67-38.47c0 0 21.26 13.38 11.95 38.47h-10.28Z" style="opacity:.73;fill:#68e1fd"/>
        <path class="cls-10" d="M390.8 356.11s6.56-21.03 26.63-25.09c0 0 3.82 13.62-12.9 25.09H390.8Z"/>
        <path class="cls-11" d="m377.75 355.7 3.75 24.95h22.98l3.29-24.95h-30.02z"/>
    </g>
    <g id="person1">
        <path class="cls-3" d="m227.94 398.19 9.29-49.18s-15.81-32.49 6.59-41.72c22.39-9.22 32.49 15.81 33.59 29.42 1.1 13.61 2.85 28.1-16.03 25.91l-.51 37.76-32.93-2.2Z"/>
        <path class="cls-11" d="M229 350.66s-.08 18.54 11.86 19.43c19.76 1.48 14.07-32.93 14.07-32.93s25.45-9.55 22.49-25.36c-2.96-15.81-25.03-17.13-31.94-12.84-6.92 4.28-32.6 10.87-16.47 51.7Z"/>
        <path class="cls-12" d="M167.78 467.57s-14.49-59.72 41.72-73.33 124.27 16.64 119.44 86.7H195.01l-27.22-13.37Z"/>
        <path class="cls-11" d="M152.69 480.94s-20.91-44.33 4.78-56.18c25.69-11.86 100.12-12.78 115.92 56.18h-120.7Z"/>
    </g>
</svg>
