<svg id="_88_knowledge_outline" xmlns="http://www.w3.org/2000/svg" viewBox="0 0 500 500" class="show_show__wrapper__graphic__5Waiy">
    <defs>
        <style>
            .cls-1{fill:#fff}.cls-2{fill:#f4a28c}.cls-3{opacity:.46;fill:none}.cls-11{fill:#24285b}.cls-12{fill:#000001}.cls-13{fill:#6f35a5}.cls-14{fill:#68e1fd}
        </style>
    </defs>
    <ellipse class="cls-12" cx="264.35" cy="455.47" rx="127.58" ry="20.43" id="sd" style="opacity:.03;fill:none"/>
    <g id="circles">
        <g style="opacity:.32;fill:none">
            <path d="M64.74 299.38c-.89 0-1.6-.72-1.6-1.6 0-1.08.01-2.16.03-3.24.02-.88.73-1.57 1.6-1.57h.03c.89.02 1.59.75 1.57 1.63-.02 1.06-.03 2.12-.03 3.18 0 .89-.72 1.6-1.6 1.6Zm370.43-5.63c-.86 0-1.57-.68-1.6-1.55-.03-1.06-.08-2.12-.13-3.18a1.6 1.6 0 0 1 1.52-1.68c.86-.07 1.64.64 1.68 1.52.05 1.07.1 2.15.13 3.23.03.89-.67 1.63-1.55 1.65h-.05ZM65.8 280.18h-.18c-.88-.1-1.51-.89-1.42-1.77.12-1.07.25-2.15.39-3.21.12-.88.93-1.49 1.8-1.38.88.11 1.5.92 1.38 1.8-.14 1.05-.26 2.1-.38 3.15-.09.82-.79 1.43-1.59 1.43Zm367.69-5.58c-.78 0-1.47-.57-1.59-1.37-.15-1.05-.31-2.1-.49-3.14-.14-.87.45-1.7 1.33-1.84a1.6 1.6 0 0 1 1.84 1.33c.17 1.06.34 2.13.49 3.2.13.88-.48 1.69-1.36 1.82-.08.01-.16.02-.23.02Zm-364.5-13.38a1.61 1.61 0 0 1-1.57-1.96c.24-1.05.49-2.11.74-3.15.21-.86 1.08-1.39 1.94-1.17.86.21 1.39 1.08 1.17 1.94-.25 1.03-.5 2.06-.73 3.09a1.6 1.6 0 0 1-1.56 1.25Zm360.69-5.47c-.71 0-1.36-.48-1.55-1.2-.27-1.02-.55-2.05-.83-3.07a1.605 1.605 0 1 1 3.09-.87c.29 1.04.57 2.08.85 3.12.22.86-.29 1.73-1.15 1.96-.14.03-.27.05-.41.05ZM74.29 242.73a1.603 1.603 0 0 1-1.52-2.13c.36-1.02.72-2.04 1.1-3.06.31-.83 1.23-1.26 2.06-.95.83.31 1.25 1.23.95 2.06-.37 1-.73 2-1.08 3-.23.66-.85 1.07-1.51 1.07Zm349.48-5.28c-.64 0-1.25-.39-1.5-1.03-.38-.99-.77-1.97-1.17-2.95-.34-.82.06-1.76.88-2.09.82-.34 1.76.06 2.09.88.41 1 .81 2 1.2 3.01.32.83-.09 1.75-.92 2.07-.19.07-.38.11-.58.11Zm-342.13-12.5a1.606 1.606 0 0 1-1.44-2.3c.47-.98.95-1.95 1.43-2.91a1.6 1.6 0 0 1 2.15-.71c.79.4 1.11 1.36.71 2.16-.48.95-.95 1.9-1.41 2.86-.28.57-.85.91-1.45.91Zm334.2-5.02c-.58 0-1.14-.31-1.42-.86-.49-.94-.99-1.87-1.49-2.79a1.61 1.61 0 0 1 .64-2.18 1.61 1.61 0 0 1 2.18.64c.52.94 1.02 1.89 1.52 2.85a1.603 1.603 0 0 1-1.42 2.34ZM90.94 208.1c-.29 0-.59-.08-.85-.25-.75-.47-.98-1.46-.51-2.21.57-.92 1.16-1.83 1.75-2.73a1.6 1.6 0 0 1 2.22-.46c.74.49.95 1.48.46 2.22-.58.89-1.15 1.78-1.72 2.68-.3.49-.83.75-1.36.75Zm315.07-4.69c-.52 0-1.02-.25-1.33-.71-.59-.88-1.19-1.75-1.8-2.61-.51-.73-.33-1.73.39-2.24.73-.51 1.72-.33 2.24.39.62.88 1.23 1.77 1.83 2.66.49.73.3 1.73-.43 2.23-.27.18-.59.27-.9.27ZM102.07 192.4a1.604 1.604 0 0 1-1.26-2.6c.67-.84 1.35-1.68 2.04-2.51.56-.68 1.57-.78 2.26-.22.68.56.78 1.58.22 2.26-.68.82-1.34 1.64-2 2.47-.32.4-.78.6-1.26.6Zm292.33-4.31c-.46 0-.91-.19-1.22-.57-.69-.81-1.38-1.61-2.08-2.4a1.6 1.6 0 0 1 .14-2.26c.67-.58 1.68-.52 2.26.14.71.81 1.42 1.62 2.12 2.45.57.68.49 1.69-.18 2.26-.3.26-.67.38-1.04.38Zm-279.53-10.05c-.41 0-.82-.16-1.13-.47a1.6 1.6 0 0 1 0-2.27c.76-.76 1.53-1.52 2.3-2.27.64-.61 1.65-.6 2.27.04.62.64.6 1.65-.04 2.27-.76.74-1.52 1.48-2.26 2.23-.31.31-.72.47-1.14.47Zm266.27-3.89c-.39 0-.79-.14-1.1-.44-.77-.73-1.55-1.45-2.33-2.16a1.599 1.599 0 1 1 2.15-2.37c.8.73 1.59 1.46 2.38 2.2a1.6 1.6 0 0 1-1.1 2.77Zm-251.96-8.96c-.47 0-.93-.21-1.25-.6-.55-.69-.44-1.7.25-2.25.84-.68 1.69-1.34 2.54-2 .7-.54 1.71-.41 2.25.29s.41 1.71-.29 2.25c-.84.65-1.67 1.3-2.49 1.96-.3.24-.65.35-1 .35Zm237.24-3.42c-.34 0-.67-.1-.96-.32-.85-.64-1.7-1.27-2.56-1.89-.72-.52-.88-1.52-.36-2.24.52-.72 1.52-.88 2.24-.36.88.63 1.75 1.27 2.61 1.92.71.53.85 1.54.32 2.25-.31.42-.8.64-1.28.64Zm-221.59-7.76c-.53 0-1.05-.26-1.36-.75-.47-.75-.25-1.74.5-2.21.91-.58 1.82-1.14 2.74-1.7.76-.46 1.75-.22 2.2.54.46.76.22 1.74-.54 2.2-.9.55-1.8 1.11-2.7 1.67-.27.17-.56.25-.86.25Zm205.59-2.91c-.28 0-.56-.07-.81-.22-.91-.54-1.83-1.07-2.76-1.59a1.615 1.615 0 0 1-.61-2.19c.43-.77 1.41-1.05 2.19-.61.94.53 1.88 1.07 2.81 1.62.76.45 1.02 1.43.57 2.2-.3.51-.83.79-1.38.79Zm-188.79-6.45c-.6 0-1.17-.33-1.44-.9a1.6 1.6 0 0 1 .74-2.14c.97-.47 1.94-.93 2.92-1.38.8-.37 1.76-.02 2.13.78.37.8.02 1.76-.78 2.13-.96.44-1.91.9-2.86 1.36-.23.11-.46.16-.7.16Zm171.69-2.37c-.22 0-.44-.04-.65-.14-.97-.43-1.94-.86-2.92-1.27-.82-.34-1.2-1.29-.85-2.1.34-.82 1.29-1.2 2.1-.85 1 .42 1.99.85 2.98 1.3.81.36 1.17 1.31.81 2.12-.27.6-.85.95-1.47.95Zm-153.96-5.05a1.605 1.605 0 0 1-.53-3.12c1.02-.36 2.04-.71 3.06-1.05a1.603 1.603 0 0 1 1.02 3.04c-1.01.34-2.01.68-3.01 1.03-.18.06-.36.09-.53.09Zm135.97-1.79c-.16 0-.32-.02-.48-.08-1.01-.32-2.02-.63-3.04-.93a1.603 1.603 0 0 1-1.08-1.99 1.59 1.59 0 0 1 1.99-1.08c1.04.31 2.07.62 3.1.95a1.602 1.602 0 0 1-.49 3.13Zm-117.51-3.59a1.6 1.6 0 0 1-.36-3.16c1.05-.24 2.1-.47 3.16-.7.86-.18 1.72.37 1.9 1.24.18.87-.37 1.72-1.24 1.9-1.04.22-2.07.45-3.1.69-.12.03-.24.04-.36.04Zm98.88-1.18c-.1 0-.21 0-.31-.03-1.04-.21-2.08-.4-3.12-.58-.87-.15-1.46-.99-1.3-1.86.15-.87.99-1.46 1.86-1.3 1.07.19 2.13.39 3.18.59.87.17 1.43 1.02 1.26 1.88-.15.76-.82 1.29-1.57 1.29Zm-79.93-2.09c-.8 0-1.5-.6-1.59-1.42-.1-.88.53-1.68 1.41-1.78 1.07-.12 2.14-.24 3.22-.34.9-.08 1.67.56 1.75 1.44.09.88-.56 1.67-1.44 1.75-1.06.1-2.11.21-3.16.34-.06 0-.12.01-.19.01Zm60.88-.55h-.13c-1.05-.09-2.11-.17-3.17-.23-.88-.06-1.55-.82-1.5-1.7.06-.89.78-1.53 1.7-1.5 1.08.07 2.15.15 3.23.24a1.602 1.602 0 0 1-.13 3.2Zm-19.23-.59h-3.21c-.89 0-1.6-.72-1.6-1.6s.72-1.6 1.6-1.6h3.21c.89 0 1.6.72 1.6 1.6s-.72 1.6-1.6 1.6Zm-19.25 0h-3.21c-.88 0-1.6-.71-1.6-1.59 0-.89.71-1.61 1.59-1.61h3.22c.89 0 1.6.72 1.6 1.6s-.72 1.6-1.6 1.6Z" style="fill:#a5a5a5"/>
        </g>
        <circle class="cls-13" cx="64.74" cy="307.86" r="18.61"/>
        <circle class="cls-13" cx="435.26" cy="299.4" r="18.61"/>
        <circle class="cls-11" cx="124.25" cy="174.66" r="25.7"/>
        <circle class="cls-11" cx="377.02" cy="172.34" r="25.7"/>
    </g>
    <g id="person">
        <path class="cls-2" d="M83.78 345.65s-5.91-4.68-12.07-3.2c-6.16 1.48-1.48 5.67-1.48 5.67s-7.39-2.71-8.38 3.45c-.99 6.16 21.93 4.68 21.93 4.68v-10.59Z"/>
        <path class="cls-14" d="M214.13 190.63s-47.36 5.81-53.12 64.03c-5.77 58.23-34.35 94.28-79.68 88.57v15.24s106.44 16.23 122.21-86.62l10.6-81.22Z"/>
        <g class="cls-3">
            <path class="cls-1" d="M214.13 190.63s-47.36 5.81-53.12 64.03c-5.77 58.23-34.35 94.28-79.68 88.57v15.24s106.44 16.23 122.21-86.62l10.6-81.22Z"/>
        </g>
        <path class="cls-2" d="M424.28 345.65s5.91-4.68 12.07-3.2 1.48 5.67 1.48 5.67 7.39-2.71 8.38 3.45c.99 6.16-21.93 4.68-21.93 4.68v-10.59Z"/>
        <path class="cls-14" d="M293.94 190.63s47.36 5.81 53.12 64.03c5.77 58.23 34.35 94.28 79.68 88.57v15.24S320.3 374.7 304.53 271.85l-10.6-81.22Z"/>
        <g class="cls-3">
            <path class="cls-1" d="M293.94 190.63s47.36 5.81 53.12 64.03c5.77 58.23 34.35 94.28 79.68 88.57v15.24S320.3 374.7 304.53 271.85l-10.6-81.22Z"/>
        </g>
        <path class="cls-14" d="M241.29 188.85s-57.14-5.09-64.61 33.48c-7.47 38.57 46.71 99.88 46.71 99.88h72.87s115.38-153.07-54.96-133.36ZM242.45 419.43s3.23 4.24 1.09 8.25c-2.14 4.01.94 7.41 4.12 4.62s4.49-14.46 4.49-14.46l-7.17-4.19-2.53 5.78ZM273.08 453.7s-3.23 4.24-1.09 8.25c2.14 4.01-.94 7.41-4.12 4.62s-4.49-14.46-4.49-14.46l7.17-4.19 2.53 5.78Z"/>
        <path class="cls-1" d="M239.65 188.48s-7.21 11.35-.14 15.41c7.07 4.06 9.34-.57 9.34-.57s5.27 6.21 9.98 1.39c4.71-4.82 4.05-14.41-.75-18.83-4.8-4.42-18.41 2.6-18.41 2.6Z"/>
        <path class="cls-2" d="M241.29 188.85c.31 2.09.56 4.19.63 6.31.09 2.9 1.02 7.21 5.6 8.06 7.06 1.31 8.94-9.86 8.94-9.86s4.45-10.46-3.2-11.9c-6.88-1.29-13.37-2.22-11.97 7.39Z"/>
        <path class="cls-2" d="M256.02 193.81s.4-3.39 3.36-3.25c2.96.14 1.79 6.48-3.36 3.25ZM242.99 191.93s1.04-3.25-1.71-4.35-4.32 5.15 1.71 4.35Z"/>
        <path class="cls-11" d="M241.29 188.85s-11.44-1.64-6.33-10.06c5.11-8.41 6.25-2.11 8.66-8.63 2.42-6.52 4.59-7.78 8.13-4.99s.11 8.62 5.47 6.98c5.36-1.64 9.01-3.17 10.03 1.27 1.02 4.44.02 6.56-3.45 8.08s1.97 7.49-6.7 9.93c-8.67 2.44-13.18-7.04-13.18-7.04l-2.64 4.45ZM223.39 322.22s-39.49 34.49-19.29 62.35c20.2 27.86 36.91 36.71 36.91 36.71l6.71-7.93s-47.11-51.62 4.43-73.15l44.1-17.99h-72.87Z"/>
        <path class="cls-11" d="M296.25 322.22s41.76 89.89-22.3 133.25l-6.32-9.53s51.09-54.36-16.01-110.37l44.63-13.35Z"/>
        <path class="cls-1" d="M280.63 228.22h29v10.02h-29z"/>
        <path class="cls-12" d="M332.21 250.07s-42.16 71.73-124.12 52.74l15.29 19.41h72.87s29.78-41.43 35.96-72.15Z" style="opacity:.08;fill:none"/>
    </g>
    <g id="lamp">
        <circle class="cls-13" cx="249.21" cy="71.91" r="47.8" style="opacity:.15;fill:none"/>
        <path class="cls-13" d="M282.62 69.63c0-18.48-15.11-33.42-33.65-33.16-17.69.26-32.23 14.65-32.66 32.34-.22 9.2 3.31 17.57 9.16 23.7 4.74 4.97 7.24 11.67 7.24 18.54v1.13h32.83v-.84c0-7 2.86-13.62 7.73-18.65 5.78-5.97 9.35-14.1 9.35-23.07Z"/>
        <path class="cls-1" d="M240.55 112.24c-.55 0-1.04-.4-1.14-.97l-6.93-41.96c-.1-.63.32-1.22.95-1.33.63-.1 1.22.32 1.33.95l6.93 41.96c.1.63-.32 1.22-.95 1.33-.06.01-.13.02-.19.02ZM257.85 112.24c-.06 0-.13 0-.19-.02-.63-.1-1.05-.7-.95-1.33l6.93-41.96a1.156 1.156 0 0 1 2.28.38l-6.93 41.96c-.09.57-.58.97-1.14.97Z"/>
        <path class="cls-11" d="M230.67 107.07h37.57v29.65h-37.57z"/>
        <path class="cls-1" d="M252.86 77.83c-1.46 0-2.87-.88-4.21-2.61-.55-.71-1.08-1.05-1.56-1-1.11.1-2.39 1.91-2.83 2.77-.29.57-.99.79-1.55.5-.57-.29-.79-.98-.5-1.55.2-.39 2-3.77 4.67-4.02.92-.08 2.28.17 3.61 1.89.64.83 1.6 1.8 2.53 1.7 1.07-.11 2.01-1.58 2.25-2.09a1.155 1.155 0 0 1 2.09.99c-.15.32-1.55 3.12-4.08 3.39-.13.01-.26.02-.39.02Z"/>
        <ellipse class="cls-1" cx="261.07" cy="51.42" rx="8.05" ry="10.3" transform="rotate(-66.56 261.063 51.429)" style="opacity:.21;fill:none"/>
        <path class="cls-11" d="M239.56 136.73h19.8v9.92h-19.8z"/>
        <path class="cls-1" d="M239.56 136.73h19.8v9.92h-19.8z" style="opacity:.17;fill:none"/>
    </g>
</svg>
