<svg id="_0097_graduation" xmlns="http://www.w3.org/2000/svg" viewBox="0 0 500 500" class="show_show__wrapper__graphic__5Waiy">
    <defs>
        <style>
            .cls-1{fill:#f4a28c}.cls-2{fill:#a5a5a5}.cls-6,.cls-7{fill:none}.cls-6{opacity:.08}.cls-7{opacity:.36}.cls-10{fill:#24285b}.cls-11{fill:#000001}.cls-12{fill:#ffd200}.cls-13{fill:#68e1fd}
        </style>
    </defs>
    <g id="bg">
        <g style="opacity:.3;fill:none">
            <path d="M85.57 126.4c-38.76 30.36-61.73 86.09-58.08 144.27 1.87 29.75 10.34 58.63 33.18 74.13 61.21 41.51 327.96 41.22 364.31-31.35 37.45-74.75 24.58-178.82-60.56-222.54C290.61 53 185.66 48 85.56 126.4Z" style="fill:#e6e6e6"/>
        </g>
        <ellipse class="cls-11" cx="251.84" cy="453.27" rx="174.11" ry="24.3" style="fill:none;opacity:.03"/>
        <circle class="cls-2" cx="434.47" cy="77.18" r="5.59"/>
        <circle class="cls-2" cx="353.27" cy="167.27" r="5.59"/>
        <g class="cls-7">
            <circle class="cls-2" cx="367.43" cy="308.81" r="5.59"/>
        </g>
        <circle class="cls-2" cx="66.38" cy="283.87" r="5.59"/>
        <circle class="cls-2" cx="418.83" cy="394.13" r="5.59"/>
        <g class="cls-7">
            <circle class="cls-2" cx="35.65" cy="86.45" r="5.59"/>
        </g>
        <g class="cls-7">
            <circle class="cls-2" cx="253.8" cy="37.66" r="5.59"/>
        </g>
        <g class="cls-7">
            <circle class="cls-2" cx="116.14" cy="185.44" r="5.59"/>
        </g>
        <g class="cls-7">
            <circle class="cls-2" cx="79.32" cy="405.11" r="5.59"/>
        </g>
        <g class="cls-7">
            <circle class="cls-2" cx="467.3" cy="233.4" r="5.59"/>
        </g>
    </g>
    <g id="student">
        <path class="cls-1" d="m360.95 226.6 42.83-2.17s7.08-6.51 13.04-6.51 8.13 14.1-8.68 16.27c0 0-24.94 20.6-63.44 13.01-38.5-7.59-30.96-28.19 16.24-20.6ZM186.66 297.45l26.94 148.73 10.14.89 2.53-146.17-39.61-3.45zM232.59 310.24l120.28 91.54 8.08-6.19-96.81-109.54-31.55 24.19zM134.65 87.9l-17.7-30.39-9.28 5.51 20.05 47.8 15.55-9.43-8.62-13.49z"/>
        <path class="cls-10" d="M264.04 254.87c-5.54-6.19-5.91-15.44-.89-22.06l8.76-11.54c29.48 48.81 98.21 39.87 98.21 39.87l4.65-45.61c-24.05 6.15-69.04-15.46-74.76-41.12-5.72-25.66-47.42-33.1-47.42-33.1l-14.05-8.13c-30.7-10.03-45.79 5.87-53.02 27.21s-19.87 50.5-16.25 76.88c3.62 26.37 9.31 158.25 9.31 158.25l161.35-55.85-75.88-84.8Z"/>
        <path class="cls-13" d="M213.4 443.96s-4.45 8.02-11.68 8.84c-7.23.82-6.63 11.13 4.74 8.2 4.34-1.12 7.76-2.4 10.33-3.55 3.07-1.38 6.44-1.57 9.78-1.24 1.04.1 2.15-.31 3.07-1.85 2.65-4.38-6.83-11.93-6.83-11.93l-9.41 1.53ZM352.4 401.58s6.25 6.71 4.8 13.84c-1.46 7.13 8.53 9.74 9.26-1.97.28-4.47.12-8.12-.19-10.93-.36-3.34.49-6.61 1.84-9.69.42-.96.36-2.14-.81-3.49-3.35-3.87-11.72.16-11.72.16l-3.19 12.08Z"/>
        <path class="cls-10" d="M230.17 133.39s-71.03-8.37-88.72-51.14l-42.52 34.88s54.3 60.23 109.38 52.96l21.86-36.69Z"/>
        <path class="cls-1" d="M251.91 107.4s-4.8 5.32-6.7 9.83c-.77 1.83.1 3.97 1.94 4.72 2.29.93 5.65 1.51 8.56-1.02l5.48-3.7s3.35-2.44 1.88-7.19c-1.47-4.75-8.41-6.02-11.17-2.63Z"/>
        <path class="cls-1" d="m259.09 117.89-6.49 23.43-13.76-7.13 10.92-13.68 9.33-2.62z"/>
        <path class="cls-13" d="M241.25 131.18s-18.2-3.12-28.28-1.57c-10.08 1.55-40.92 25.06-7.18 49.3s70.93 24.96 94.23-4.49c0 0-1.72-15.49-18.79-24.21-17.07-8.73-39.98-19.03-39.98-19.03Z"/>
        <g class="cls-6">
            <path class="cls-11" d="M248.97 134.7s-10.45 10.33 1.08 20.25c11.53 9.93 17.13-.93 20.67 13.55 3.53 14.48 26.06-3.38 26.06-3.38s-5.28-9.2-11.87-12.78l-35.94-17.64Z"/>
        </g>
        <path class="cls-1" d="M254.28 116.88s1.71-2.17 3.23-.75c1.53 1.42-.92 4.57-3.39 3.17l.16-2.42Z"/>
        <path class="cls-12" d="M251.91 107.4s3.58 3.35 3.69 8.44-10.46 22.22-2.7 26.48c7.76 4.27 13.38-.78 18.62 8.53 5.24 9.31 17.65.97 19.39-7.18 1.75-8.15-1.16-13.58-11.25-16.48-10.08-2.91-7.95-17.07-7.95-17.07l-19.8-2.73Z"/>
        <path class="cls-1" d="m248.3 112.2-3.26 1c-.8.25-1.08 1.25-.51 1.87l1.87 2.06 1.89-4.93Z"/>
        <g style="opacity:.31;fill:none">
            <path d="M248.34 122.36s1.5.73 5.46.27c0 0-2.37 4.04-8.71 3.72l3.24-3.99Z" style="fill:#ce8172"/>
        </g>
        <path class="cls-10" d="m240.35 92.74 30.51-3.62 20.52 23.21-27.94 7.32-11.53-12.25-11.56-14.66z"/>
        <path class="cls-10" d="M320.07 137.68c-.05-.11-5.19-11.08-20.05-10.81-4.81.08-8.47-1.24-10.86-3.94-3.84-4.32-3.03-10.54-3-10.8l.99.14c0 .06-.77 6.04 2.76 10.01 2.19 2.47 5.58 3.67 10.09 3.6 15.47-.27 20.93 11.28 20.98 11.39l-.91.41Z"/>
        <circle class="cls-13" cx="320.19" cy="135.92" r="4.48"/>
        <path class="cls-12" transform="rotate(-35.17 101.954 45.16)" d="M71.02 39.15h61.86v12.03H71.02z"/>
        <path class="cls-10" d="m97.28 37.66 16.05 10.52-8.4 5.92-15.04-11.24 7.39-5.2z"/>
        <path class="cls-13" d="m177.53 372.41 143-54.41 19.39 21.68-161.35 55.85-1.04-23.12z"/>
        <g class="cls-6">
            <path class="cls-11" d="M307.7 350.83s-72.16-69.33-67.35-106.18c4.8-36.85 26.91-47.71 39.71-38.79 12.8 8.92 17.98 37.1 91.61 40.08l-1.55 15.21s-67.69 8.84-98.21-39.87l-8.76 11.54s-8.41 10.43.89 22.06l75.88 84.8-32.22 11.15Z"/>
        </g>
        <path class="cls-1" d="M116.95 57.51s-2.01-12.03-9.28-15.79-15.29 8.52 0 21.31l9.28-5.51Z"/>
    </g>
</svg>
